<svg xmlns="http://www.w3.org/2000/svg" width="1200" height="1200" viewBox="0 0 1200 1200"><rect width="1200" height="1200" fill="#122127"/><style>text{font-family:Arial,sans-serif;fill:#f4f5ef}.serif{font-family:Georgia,serif}.mono{font-family:monospace}.display{font-size:82px;font-weight:700;letter-spacing:-.04em}.micro{font-size:12px;letter-spacing:.12em}.body{font-size:22px}</style><text x="48" y="58" class="micro">RAPID</text><text x="962" y="58" class="micro">MENU · CONTACT</text><text x="60" y="198" class="display">RAPID RESPONSE COMMAND</text><rect x="48" y="362" width="1104" height="288" fill="#ffb02e" opacity=".17" stroke="#ffb02e"/><rect x="787.6800000000001" y="392" width="28.703999999999997" height="216" fill="#f4f5ef"/><rect x="842.88" y="392" width="28.703999999999997" height="216" fill="#ffb02e"/><rect x="898.0799999999999" y="392" width="28.703999999999997" height="216" fill="#f4f5ef"/><rect x="953.28" y="392" width="28.703999999999997" height="216" fill="#ffb02e"/><rect x="1008.48" y="392" width="28.703999999999997" height="216" fill="#f4f5ef"/><rect x="1063.68" y="392" width="28.703999999999997" height="216" fill="#ffb02e"/><text x="48" y="755" class="micro" fill="#ffb02e">SERVICES / SYSTEM</text><line x1="48" y1="777" x2="1152" y2="777" stroke="#f4f5ef" stroke-opacity=".22"/><text x="48" y="801" class="micro" fill="#ffb02e">01</text><text x="110" y="801" class="body">CORE SERVICE</text><line x1="48" y1="849" x2="1152" y2="849" stroke="#f4f5ef" stroke-opacity=".22"/><text x="48" y="873" class="micro" fill="#ffb02e">02</text><text x="110" y="873" class="body">DIAGNOSTIC PATH</text><line x1="48" y1="921" x2="1152" y2="921" stroke="#f4f5ef" stroke-opacity=".22"/><text x="48" y="945" class="micro" fill="#ffb02e">03</text><text x="110" y="945" class="body">PROOF / PROCESS</text><line x1="48" y1="993" x2="1152" y2="993" stroke="#f4f5ef" stroke-opacity=".22"/><text x="48" y="1017" class="micro" fill="#ffb02e">04</text><text x="110" y="1017" class="body">REQUEST / VISIT</text><rect x="48" y="1062" width="1104" height="82" rx="20" fill="#ffb02e"/><text x="62" y="1112" class="body" fill="#122127">START A REQUEST</text><text x="1097" y="1114" class="body" fill="#122127">→</text></svg>