<svg xmlns="http://www.w3.org/2000/svg" width="1200" height="1200" viewBox="0 0 1200 1200"><rect width="1200" height="1200" fill="#eeeae2"/><style>text{font-family:Arial,sans-serif;fill:#151515}.serif{font-family:Georgia,serif}.mono{font-family:monospace}.display{font-size:82px;font-weight:700;letter-spacing:-.04em}.micro{font-size:12px;letter-spacing:.12em}.body{font-size:22px}</style><text x="48" y="58" class="micro">OBJECT</text><text x="962" y="58" class="micro">MENU · CONTACT</text><text x="60" y="180" class="display serif">OBJECT MUSEUM STAGE</text><rect x="48" y="338" width="1104" height="336.00000000000006" fill="#151515" opacity=".06"/><circle cx="768" cy="506" r="120" fill="#846d4d" stroke="#151515" stroke-width="2"/><circle cx="768" cy="506" r="62" fill="none" stroke="#eeeae2" stroke-width="5"/><text x="48" y="755" class="micro" fill="#846d4d">SERVICES / SYSTEM</text><line x1="48" y1="777" x2="1152" y2="777" stroke="#151515" stroke-opacity=".22"/><text x="48" y="801" class="micro" fill="#846d4d">01</text><text x="110" y="801" class="body">CORE SERVICE</text><line x1="48" y1="849" x2="1152" y2="849" stroke="#151515" stroke-opacity=".22"/><text x="48" y="873" class="micro" fill="#846d4d">02</text><text x="110" y="873" class="body">DIAGNOSTIC PATH</text><line x1="48" y1="921" x2="1152" y2="921" stroke="#151515" stroke-opacity=".22"/><text x="48" y="945" class="micro" fill="#846d4d">03</text><text x="110" y="945" class="body">PROOF / PROCESS</text><line x1="48" y1="993" x2="1152" y2="993" stroke="#151515" stroke-opacity=".22"/><text x="48" y="1017" class="micro" fill="#846d4d">04</text><text x="110" y="1017" class="body">REQUEST / VISIT</text><rect x="48" y="1062" width="1104" height="82" rx="20" fill="#846d4d"/><text x="62" y="1112" class="body" fill="#eeeae2">START A REQUEST</text><text x="1097" y="1114" class="body" fill="#eeeae2">→</text></svg>