<svg xmlns="http://www.w3.org/2000/svg" width="1200" height="1200" viewBox="0 0 1200 1200"><rect width="1200" height="1200" fill="#f2efe9"/><style>text{font-family:Arial,sans-serif;fill:#111111}.serif{font-family:Georgia,serif}.mono{font-family:monospace}.display{font-size:82px;font-weight:700;letter-spacing:-.04em}.micro{font-size:12px;letter-spacing:.12em}.body{font-size:22px}</style><text x="48" y="58" class="micro">FASHION</text><text x="962" y="58" class="micro">MENU · CONTACT</text><text x="60" y="198" class="display">FASHION ARCHIVE</text><rect x="576" y="278" width="496.8" height="372" fill="#e94f37" opacity=".78"/><line x1="48" y1="458" x2="1152" y2="458" stroke="#111111" stroke-width="2"/><text x="48" y="755" class="micro" fill="#e94f37">SERVICES / SYSTEM</text><line x1="48" y1="777" x2="1152" y2="777" stroke="#111111" stroke-opacity=".22"/><text x="48" y="801" class="micro" fill="#e94f37">01</text><text x="110" y="801" class="body">CORE SERVICE</text><line x1="48" y1="849" x2="1152" y2="849" stroke="#111111" stroke-opacity=".22"/><text x="48" y="873" class="micro" fill="#e94f37">02</text><text x="110" y="873" class="body">DIAGNOSTIC PATH</text><line x1="48" y1="921" x2="1152" y2="921" stroke="#111111" stroke-opacity=".22"/><text x="48" y="945" class="micro" fill="#e94f37">03</text><text x="110" y="945" class="body">PROOF / PROCESS</text><line x1="48" y1="993" x2="1152" y2="993" stroke="#111111" stroke-opacity=".22"/><text x="48" y="1017" class="micro" fill="#e94f37">04</text><text x="110" y="1017" class="body">REQUEST / VISIT</text><rect x="48" y="1062" width="1104" height="82" rx="20" fill="#e94f37"/><text x="62" y="1112" class="body" fill="#f2efe9">START A REQUEST</text><text x="1097" y="1114" class="body" fill="#f2efe9">→</text></svg>