<svg xmlns="http://www.w3.org/2000/svg" width="1200" height="1200" viewBox="0 0 1200 1200"><rect width="1200" height="1200" fill="#edf0e7"/><style>text{font-family:Arial,sans-serif;fill:#2f443c}.serif{font-family:Georgia,serif}.display{font-size:82px;font-weight:700;letter-spacing:-.04em}.micro{font-size:12px;letter-spacing:.12em}.body{font-size:22px}</style><text x="48" y="58" class="micro">WELLNESS</text><text x="962" y="58" class="micro">MENU · CONTACT</text><text x="60" y="198" class="display serif">WELLNESS SANCTUARY FLOW</text><rect x="48" y="362" width="1104" height="288" rx="70" fill="#c4a6b8" opacity=".23"/><ellipse cx="420" cy="494" rx="70" ry="105" fill="#2f443c" fill-opacity="0.05"/><ellipse cx="612" cy="512" rx="70" ry="105" fill="#c4a6b8" fill-opacity="0.28"/><ellipse cx="803.9999999999999" cy="530" rx="70" ry="105" fill="#2f443c" fill-opacity="0.05"/><text x="48" y="755" class="micro" fill="#c4a6b8">SERVICES / SYSTEM</text><line x1="48" y1="777" x2="1152" y2="777" stroke="#2f443c" stroke-opacity=".22"/><text x="48" y="801" class="micro" fill="#c4a6b8">01</text><text x="110" y="801" class="body">CORE SERVICE</text><line x1="48" y1="849" x2="1152" y2="849" stroke="#2f443c" stroke-opacity=".22"/><text x="48" y="873" class="micro" fill="#c4a6b8">02</text><text x="110" y="873" class="body">DIAGNOSTIC PATH</text><line x1="48" y1="921" x2="1152" y2="921" stroke="#2f443c" stroke-opacity=".22"/><text x="48" y="945" class="micro" fill="#c4a6b8">03</text><text x="110" y="945" class="body">PROOF / PROCESS</text><line x1="48" y1="993" x2="1152" y2="993" stroke="#2f443c" stroke-opacity=".22"/><text x="48" y="1017" class="micro" fill="#c4a6b8">04</text><text x="110" y="1017" class="body">REQUEST / VISIT</text><rect x="48" y="1062" width="1104" height="82" rx="20" fill="#c4a6b8"/><text x="62" y="1112" class="body" fill="#edf0e7">START A REQUEST</text><text x="1097" y="1114" class="body" fill="#edf0e7">→</text></svg>