<svg xmlns="http://www.w3.org/2000/svg" width="390" height="844" viewBox="0 0 390 844"><rect width="390" height="844" fill="#e9eef0"/><style>text{font-family:Arial,sans-serif;fill:#223039}.serif{font-family:Georgia,serif}.mono{font-family:monospace}.display{font-size:40px;font-weight:700;letter-spacing:-.04em}.micro{font-size:9px;letter-spacing:.12em}.body{font-size:15px}</style><text x="20" y="30" class="micro">ATMOSPHERIC</text><text x="280" y="30" class="micro">MENU · CONTACT</text><text x="32" y="121" class="display">ATMOSPHERIC</text><text x="32" y="165" class="display">HORIZON</text><rect x="20" y="252.4" width="350" height="218.4" rx="16" fill="#9f8468" opacity=".25"/><line x1="20" y1="336.4" x2="370" y2="336.4" stroke="#223039" stroke-opacity="0.18" stroke-width="1"/><line x1="20" y1="351.1" x2="370" y2="351.1" stroke="#223039" stroke-opacity="0.18" stroke-width="1"/><line x1="20" y1="365.79999999999995" x2="370" y2="365.79999999999995" stroke="#9f8468" stroke-opacity="1" stroke-width="3"/><line x1="20" y1="380.5" x2="370" y2="380.5" stroke="#223039" stroke-opacity="0.18" stroke-width="1"/><line x1="20" y1="395.2" x2="370" y2="395.2" stroke="#223039" stroke-opacity="0.18" stroke-width="1"/><line x1="20" y1="409.90000000000003" x2="370" y2="409.90000000000003" stroke="#223039" stroke-opacity="0.18" stroke-width="1"/><line x1="20" y1="424.6" x2="370" y2="424.6" stroke="#223039" stroke-opacity="0.18" stroke-width="1"/><text x="20" y="524" class="micro" fill="#9f8468">SERVICES / SYSTEM</text><line x1="20" y1="546" x2="370" y2="546" stroke="#223039" stroke-opacity=".22"/><text x="20" y="570" class="micro" fill="#9f8468">01</text><text x="58" y="570" class="body">CORE SERVICE</text><line x1="20" y1="604" x2="370" y2="604" stroke="#223039" stroke-opacity=".22"/><text x="20" y="628" class="micro" fill="#9f8468">02</text><text x="58" y="628" class="body">DIAGNOSTIC PATH</text><line x1="20" y1="662" x2="370" y2="662" stroke="#223039" stroke-opacity=".22"/><text x="20" y="686" class="micro" fill="#9f8468">03</text><text x="58" y="686" class="body">PROOF / PROCESS</text><rect x="20" y="743" width="350" height="62" rx="14" fill="#9f8468"/><text x="34" y="781" class="body" fill="#e9eef0">START A REQUEST</text><text x="332" y="783" class="body" fill="#e9eef0">→</text></svg>