<svg xmlns="http://www.w3.org/2000/svg" width="390" height="844" viewBox="0 0 390 844"><rect width="390" height="844" fill="#0d1b2a"/><style>text{font-family:Arial,sans-serif;fill:#f8f7f2}.serif{font-family:Georgia,serif}.mono{font-family:monospace}.display{font-size:40px;font-weight:700;letter-spacing:-.04em}.micro{font-size:9px;letter-spacing:.12em}.body{font-size:15px}</style><text x="20" y="30" class="micro">SCS</text><text x="280" y="30" class="micro">MENU · CONTACT</text><text x="32" y="134" class="display">SCS KINETIC</text><text x="32" y="178" class="display">COMMAND</text><rect x="20" y="256.6" width="350" height="201.6" fill="#ff6a2a" opacity=".17" stroke="#ff6a2a"/><rect x="265" y="273.4" width="12.250000000000002" height="159.6" fill="#f8f7f2"/><rect x="284.25" y="273.4" width="12.250000000000002" height="159.6" fill="#ff6a2a"/><rect x="303.5" y="273.4" width="12.250000000000002" height="159.6" fill="#f8f7f2"/><rect x="322.75" y="273.4" width="12.250000000000002" height="159.6" fill="#ff6a2a"/><rect x="342" y="273.4" width="12.250000000000002" height="159.6" fill="#f8f7f2"/><text x="20" y="524" class="micro" fill="#ff6a2a">SERVICES / SYSTEM</text><line x1="20" y1="546" x2="370" y2="546" stroke="#f8f7f2" stroke-opacity=".22"/><text x="20" y="570" class="micro" fill="#ff6a2a">01</text><text x="58" y="570" class="body">CORE SERVICE</text><line x1="20" y1="604" x2="370" y2="604" stroke="#f8f7f2" stroke-opacity=".22"/><text x="20" y="628" class="micro" fill="#ff6a2a">02</text><text x="58" y="628" class="body">DIAGNOSTIC PATH</text><line x1="20" y1="662" x2="370" y2="662" stroke="#f8f7f2" stroke-opacity=".22"/><text x="20" y="686" class="micro" fill="#ff6a2a">03</text><text x="58" y="686" class="body">PROOF / PROCESS</text><rect x="20" y="743" width="350" height="62" rx="14" fill="#ff6a2a"/><text x="34" y="781" class="body" fill="#0d1b2a">START A REQUEST</text><text x="332" y="783" class="body" fill="#0d1b2a">→</text></svg>